<svg xmlns="http://www.w3.org/2000/svg" width="26.012" height="24.203" fill="none"><path fill="#EF5B70" d="M5.49 21.96c.01-.43.15-.86.39-1.21.24-.36.59-.63.99-.79.4-.16.83-.2 1.25-.11.42.09.81.3 1.11.61.3.31.5.7.58 1.12.08.43.04.87-.13 1.27a2.182 2.182 0 0 1-2.01 1.35c-.29-.01-.57-.07-.84-.18-.26-.11-.5-.28-.71-.49-.2-.2-.36-.45-.47-.72-.1-.27-.16-.56-.16-.85ZM21.3 24.2c-.43 0-.86-.12-1.23-.35-.36-.24-.65-.57-.83-.97-.18-.4-.23-.84-.16-1.28.06-.43.26-.83.55-1.15.29-.32.67-.55 1.09-.66.42-.11.87-.09 1.27.06a2.22 2.22 0 0 1 1.49 1.95c.04.59-.15 1.17-.53 1.63-.18.22-.41.4-.67.53-.25.14-.53.22-.82.24h-.16ZM8.59 17.26a.953.953 0 0 1-.93-.72L3.73 1.97H.97c-.26 0-.5-.11-.69-.29a1.017 1.017 0 0 1 0-1.4C.47.1.71 0 .97 0h3.48c.21 0 .42.07.59.2.17.13.29.31.34.52l3.93 14.57h10.7l3.56-8.39H11.71c-.26 0-.5-.1-.69-.29a1 1 0 0 1-.28-.7.976.976 0 0 1 .97-.98h13.34c.16 0 .32.04.45.12.14.07.26.19.35.32.09.14.14.3.15.46.02.16-.01.33-.07.48l-4.39 10.36c-.08.17-.2.32-.36.43-.15.1-.34.16-.52.16H8.59Z"/></svg>